<?xml version="1.0" encoding="utf-8"?>
<!-- Generator: Adobe Illustrator 19.0.0, SVG Export Plug-In . SVG Version: 6.00 Build 0)  -->
<svg version="1.1" id="图层_1" xmlns="http://www.w3.org/2000/svg" xmlns:xlink="http://www.w3.org/1999/xlink" x="0px" y="0px"
	 viewBox="0 0 1000 314.137" enable-background="new 0 0 1000 314.137" xml:space="preserve">
<g id="XMLID_40_">
	<path id="XMLID_52_" fill="#F04848" d="M281.093,64.037C270.38,49.799,257.459,37.812,243.6,26.793
		c-6.847-5.444-13.279-11.946-23.223-11.378c-1.473,0.084-3.309-0.998-4.506-2.068C205.488,4.066,192.713,0.654,179.47,0.079
		c-12.126-0.527-24.365,0.606-36.505,1.612c-15.162,1.257-29.641,5.581-44.157,10.103C84.643,16.206,73.14,25.047,60.57,32.126
		c-1.705,0.96-2.847,2.922-4.25,4.419c0.334,0.543,0.667,1.087,1.001,1.63c1.704-0.583,3.497-0.988,5.088-1.793
		c1.985-1.004,3.712-2.524,5.71-3.493c6.068-2.944,12.102-6.003,18.35-8.517c11.296-4.545,22.546-9.384,34.2-12.782
		c5.768-1.682,12.212-1.062,17.618-4.64c0.854-0.565,2.185-0.468,3.305-0.565c5.757-0.502,11.571-1.697,17.265-1.284
		c10.001,0.724,20.37-0.222,29.735,4.656c2.645,1.378,5.008,3.773,7.78,4.346c12.9,2.663,25.293,6.545,36.546,13.531
		c4.477,2.78,9.006,5.557,13.106,8.841c3.9,3.124,7.614,6.624,10.8,10.465c5.277,6.363,10.132,13.082,15.04,19.743
		c5.29,7.181,11.828,13.86,15.321,21.852c5.276,12.072,12.517,23.573,13.545,37.338c0.682,9.131,3.112,18.191,3.172,27.293
		c0.069,10.281-1.571,20.581-2.643,30.855c-0.18,1.729-1.241,3.366-1.895,5.046c-0.555,0.171-1.11,0.341-1.665,0.512
		c-1.057-1.814-2.984-3.614-3.011-5.443c-0.091-6.156,0.171-12.36,0.881-18.478c2.176-18.742-1.24-36.776-7.554-54.174
		c-5.999-16.529-15.365-31.3-26.335-45.123c-5.774-7.276-11.372-14.436-19.899-18.681c-1.126-0.561-2.141-1.62-2.857-2.684
		c-5.338-7.927-13.628-12.485-21.676-16.208c-10.141-4.692-21.342-7.149-32.167-10.293c-15.455-4.489-31.218-4.604-46.904-1.783
		c-9.084,1.634-17.756,5.261-26.657,7.715c-16.868,4.65-32.233,13.755-45.549,25.919c3.437,1.027,6.594,1.705,9.542,2.898
		c10.825,4.378,13.622,10.403,9.954,21.469c-1.926,5.811-4.503,11.421-6.193,17.293c-3.256,11.317-5.923,22.804-9.204,34.113
		c-0.943,3.251-0.524,5.143,2.253,7.019c6.722,4.54,8.949,11.329,9.014,19.095c0.014,1.683,0.002,3.422,0.397,5.038
		c2.864,11.719,5.938,23.388,8.666,35.138c0.517,2.227-0.218,4.744-0.429,7.939c0.288,0.353,1.816,1.428,2.197,2.817
		c3.275,11.939,6.563,23.884,9.362,35.94c1.056,4.549,0.845,9.393,1.198,14.103c0.139,1.861-0.509,4.542,0.483,5.451
		c5.527,5.069,2.937,11.149,2.424,16.831c-0.308,3.409-2.504,5.826-6.148,4.549c-2.22-2.156-4.644-3.699-7.259-4.783
		c-3.726-1.545-5.239-3.977-4.438-6.657c-1.93-1.744-4.023-2.762-4.609-4.34c-1.43-3.847-2.584-7.904-3.067-11.969
		c-0.606-5.097-0.006-10.344-0.695-15.422c-0.946-6.969-2.978-13.793-3.903-20.764c-2.825-21.307-5.827-42.556-13.294-62.868
		c-0.636-1.729-1.647-3.32-2.792-5.584c-3.48,15.946-13.984,26.351-22.71,38.15c-2.084-8.338-3.561-16.708-0.426-24.619
		c8.885-22.419,18.487-44.64,20.433-69.006c0.869-10.874,0.147-21.875,0.147-32.818c-4,2.349-6.366,4.934-8.768,7.485
		c-4.363,4.633-9.676,8.68-12.912,13.994c-5.29,8.688-9.419,18.057-17.465,22.759c0,3.992,1.018,7.355-0.179,9.46
		c-4.818,8.477-2.704,17.863-4.1,26.733c-2.023,12.858,5.529,25.036,3.882,38.253c-0.471,3.779,2.798,8.024,4.599,12.695
		c2.694-5.115,5.062-9.61,7.812-14.829c2.771,10.775,0.916,18.49-5.029,21.315c1.789,4.974,4.69,9.885,5.192,15.029
		c1.528,15.665,12.268,26.4,20.004,38.587c4.084,6.434,11.064,10.988,16.479,16.637c3.063,3.195,5.432,7.052,8.459,10.287
		c1.441,1.54,3.743,3.331,5.56,3.234c3.462-0.185,4.613,1.217,5.652,4.085c0.62,1.712,2.216,4.174,3.589,4.323
		c6.671,0.727,12.74,2.248,16.437,8.473c2.168-1.791,4.034-4.049,4.671-3.744c4.318,2.07,9.36,3.845,12.3,7.304
		c5.169,6.08,19.267,12.889,27.173,11.451c1.851-0.337,3.68-0.91,5.542-1.038c2.224-0.153,4.49-0.103,6.708,0.137
		c5.902,0.639,11.786,1.441,17.682,2.136c0.538,0.063,1.112-0.175,1.668-0.278c10.359-1.919,20.535-4.062,29.973-9.35
		c6.487-3.635,14.739-4.512,20.586-8.817c14.495-10.673,28.089-22.573,41.964-34.078c1.552-1.287,3.199-3.046,3.669-4.877
		c0.427-1.663-0.12-4.344-1.296-5.424c-1.066-0.978-3.784-0.968-5.359-0.346c-1.545,0.611-2.942,2.35-3.76,3.927
		c-4.971,9.584-12.438,16.21-22.516,20.073c-5.252,2.013-11.07,3.477-15.401,6.796c-13.95,10.692-31.419,13.39-46.458,21.471
		c-0.938,0.504-2.202,0.495-3.323,0.552c-10.438,0.529-20.875,1.181-31.32,1.412c-2.763,0.061-7.982-1.329-7.957-1.855
		c0.23-4.798,4.445-4.648,7.934-5.168c0.909-0.135,1.868,0.12,2.8,0.084c6.764-0.26,13.756,0.445,20.241-1.047
		c11.514-2.649,22.855-6.258,34.013-10.187c8.654-3.047,17.332-6.473,25.269-11.009c14.723-8.415,28.428-18.45,38.799-32.133
		c6.197-8.176,11.544-16.995,17.273-25.525c-0.505-0.797-1.009-1.595-1.514-2.392c-15.622,3.237-31.393,5.905-46.817,9.907
		c-10.591,2.748-21.507,4.269-31.799,8.333c-5.339,2.108-11.208,2.832-16.695,4.617c-16.281,5.297-31.659,12.685-47.081,20.065
		c-4.953,2.37-10.304,5.793-17.085,2.905c-7.316-3.115-9.248-7.891-4.606-13.032c-1.887-15.577-3.699-30.535-5.458-45.062
		c-1.015-1.227-2.55-2.234-2.75-3.459c-1.849-11.326-6.468-21.156-14.724-29.26c-3.615-3.548-1.182-6.293,1.976-8.075
		c9.056-5.111,21.23-0.454,23.952,9.528c2.92,10.71,5.058,21.638,7.356,32.509c0.216,1.021-0.873,2.318-0.98,2.575
		c6.296,9.598,5.016,20.454,6.631,31.647c3.392-0.628,6.874-0.965,10.166-1.942c8.461-2.511,17.071-4.751,25.183-8.146
		c7.765-3.249,16.391-3.417,23.865-7.619c2.405-1.353,5.924-0.562,8.654-1.535c5.156-1.836,9.995-4.577,15.171-6.339
		c13.562-4.616,27.325-8.653,40.836-13.411c10.61-3.736,20.26-3.096,28.792,4.109c2.294-4.61,4.502-9.047,6.71-13.484
		c0.843,0.229,1.686,0.458,2.53,0.687c0,1.784,0.525,3.776-0.087,5.317c-3.45,8.694-7.241,17.252-10.778,25.913
		c-2.41,5.901-4.537,11.917-6.897,17.838c-1.411,3.539-0.066,6.016,2.663,8.708c10.433-10.892,15.758-24.198,21.847-37.064
		c2.923-6.177,4.875-12.503,5.246-19.415c0.219-4.086,2.128-8.101,2.213-12.17c0.456-21.992,0.074-43.751-5.898-65.395
		C302.287,96.011,292.815,79.617,281.093,64.037z M234.401,196.343c-1.449,3.677-2.904,8.104-5.815,10.172
		c-1.746,1.241-7.328-0.375-9.298-2.477c-5.481-5.851-10.706-4.768-17.169-2.201c-6.384,2.535-13.763,2.785-19.857,5.77
		c-6.307,3.089-15.477,2.399-17.629,12.353c-1.009,4.664-6.002,5.524-9.387,1.912c-2.814-3.002-4.59-6.977-6.769-10.431
		c2.792-1.281,4.529-2.034,6.186-2.936c0.11-0.06-0.486-1.839-0.597-1.821c-1.711,0.268-3.396,0.702-5.673,1.234
		c-1.268-4.69-2.618-9.495-3.864-14.327c-4.369-16.943-8.51-33.949-13.168-50.812c-1.378-4.989-3.801-9.804-6.418-14.308
		c-3.489-6.007-1.696-10.287,5.336-10.943c4.736-0.442,9.586-0.14,14.209-1.055c1.506-0.298,3.344-3.315,3.504-5.216
		c0.519-6.185,0.541-12.438,0.284-18.646c-0.073-1.772-1.745-3.479-2.683-5.215c-2.966,2.949-7.796-5.096-10.201,1.731
		c-0.236,0.669-1.423,1.201-2.268,1.428c-9.301,2.495-18.626,5.21-28.348,2.516c-1.96-0.543-3.672-1.977-5.499-3
		c1.692-1.57,3.122-3.846,5.122-4.591c9.358-3.489,18.874-6.558,28.333-9.774c1.071-0.364,2.157-0.688,3.22-1.073
		c13.181-4.777,12.365-1.742,9.696-16.964c-1.297-7.397-5.263-14.385-8.407-21.384c-2.91-6.477-2.059-10.893,3.236-12.607
		c1.569-0.508,3.506-0.894,5.001-0.438c7.348,2.238,16.397-0.145,22.067,8.293c-1.312,0.883-2.301,1.55-4.078,2.746
		c5.838,0.99,5.1,3.84,4.215,7.866c-1.443,6.56-1.655,13.39-2.341,19.692c3.083,0.376,5.858,1.095,8.56,0.886
		c1.391-0.107,2.876-1.681,3.923-2.925c1.42-1.689,2.03-4.54,3.742-5.418c6-3.073,12.14-6.18,18.589-7.963
		c4.39-1.214,9.691-0.948,11.283,5.463c0.204,0.821,1.439,1.385,3.282,1.435c-0.558-1.447-1.116-2.895-1.674-4.342
		c0.344-0.408,0.689-0.816,1.033-1.224c1.859,1.758,4.656,3.21,5.351,5.347c0.992,3.048-0.195,5.9-3.956,7.437
		c-15.352,6.276-30.541,12.951-45.896,19.216c-3.389,1.383-4.397,3.086-4.144,6.699c0.417,5.949,0.113,11.948,0.113,18.719
		c5.589-2.819,9.959-5.618,14.726-7.272c5.519-1.914,11.385-3.871,17.104-3.879c6.046-0.009,12.211,1.889,18.078,3.738
		c1.876,0.591,4.384,3.829,4.198,5.604c-2.217,21.193,5.02,40.725,9.905,60.708c2.096,8.576,3.255,17.386,4.718,26.109
		C234.616,192.207,235.099,194.572,234.401,196.343z"/>
	<path id="XMLID_57_" fill="#F04848" d="M12.162,184.188c-5.175-9.143-5.333-18.47-5.806-28.194
		c-0.236-4.858-1.545-9.663-2.368-14.493c-0.848-0.015-1.696-0.03-2.543-0.045c-0.517,4.391-1.523,8.791-1.439,13.17
		c0.136,7.052,2.123,14.23,1.276,21.102c-1.252,10.151,4.941,18.137,6.568,27.423c0.775,4.424,4.657,9.237,5.661,14.591
		c0.238,1.266,1.978,2.25,3.027,3.363c0.735-1.519,2.201-3.108,2.064-4.544c-0.374-3.905-1.47-7.737-2.201-11.613
		C15.083,197.963,15.471,190.035,12.162,184.188z"/>
	<path id="XMLID_60_" fill="#F04848" d="M52.921,47.633c1.015-1.069,2.263-3.663,1.945-3.951c-1.435-1.306-3.315-2.424-5.198-2.81
		c-0.93-0.191-2.744,1.097-3.253,2.153c-3.01,6.239-5.754,12.605-8.587,18.929c0.154,0.175,0.308,0.35,0.463,0.524
		C43.184,57.544,48.137,52.669,52.921,47.633z"/>
	<path id="XMLID_61_" fill="#F04848" d="M6.411,126.492c0.71-2.329,1.507-4.638,2.055-7.005c0.108-0.464-0.744-1.15-1.154-1.734
		c-0.59-0.092-1.18-0.183-1.77-0.275c-0.498,2.677-1.055,5.348-1.385,8.046C4.129,125.751,5.624,126.165,6.411,126.492z"/>
	<path id="XMLID_62_" fill="#F04848" d="M206.328,154.768c-0.676-0.872-2.222-2.065-2.679-3.586
		c-2.929-9.727-5.437-19.582-8.442-29.284c-2.476-7.994-7.243-13.186-17.4-8.62c-10.846,4.876-21.866,9.367-33.156,14.173
		c1.763,6.867,3.334,12.981,5.153,20.063c1.847-1.304,4.711-3.118,4.616-3.288c-2.248-4.046,1.555-4.234,3.366-4.914
		c6.834-2.567,13.716-5.108,20.764-6.959c3.311-0.87,7.826-1.005,9.16,3.34c1.32,4.303-2.923,5.088-5.74,6.257
		c-9.99,4.143-20.043,8.134-30.284,12.268c1.315,5.526,2.695,11.38,4.123,17.222c0.125,0.513,0.566,0.95,1.059,1.743
		c3.935-1.783,7.765-3.836,11.813-5.281c6.329-2.258,12.713-4.582,19.273-5.853c2.147-0.416,4.913,2.358,7.396,3.673
		c-1.439,1.994-2.453,4.771-4.401,5.826c-4.775,2.587-9.945,4.468-15.022,6.467c-5.006,1.971-12.107,2.371-14.562,5.989
		c-2.324,3.424,0.183,10.132,0.586,15.394c0.057,0.745-0.032,1.836,0.398,2.152c1.163,0.853,2.956,2.266,3.822,1.891
		c10.925-4.73,21.679-9.856,32.597-14.604c3.521-1.531,7.395-2.253,11.756-3.536c-1.063-5.821-2.541-13.169-3.694-20.568
		C206.319,161.474,206.475,158.114,206.328,154.768z"/>
	<polygon id="XMLID_63_" fill="#F04848" points="402.644,85.972 440.479,85.972 440.479,152.335 451.118,152.335 451.118,85.972 
		488.556,85.972 488.556,75.942 451.118,75.942 451.118,31.115 440.479,31.115 440.479,75.942 402.644,75.942 	"/>
	<path id="XMLID_64_" fill="#F04848" d="M382.978,81.483v70.993h10.289V60.999c3.741-8.395,7.296-17.444,10.64-27.125l-10.64-2.993
		c-7.108,23.874-16.882,44.406-29.3,61.616c1.661,3.648,3.157,7.295,4.49,10.896C373.555,96.869,378.395,89.574,382.978,81.483z"/>
	<path id="XMLID_65_" fill="#F04848" d="M499.593,104.119c23.454-17.772,43.563-40.851,60.353-69.239l-10.265-5.145
		c-15.363,26.143-34.655,48.194-57.874,66.128C494.915,98.787,497.488,101.546,499.593,104.119z"/>
	<path id="XMLID_66_" fill="#F04848" d="M599.207,140.316c2.221,3.648,4.443,7.365,6.688,11.155l10.032-6.268
		c-10.102-16.275-20.789-32.386-32.06-48.334l-8.886,5.518c5.917,8.839,12.067,18.427,18.451,28.716
		c-29.884,1.613-52.614,2.712-68.164,3.344c21.864-21.793,42.348-46.954,61.476-75.529l-10.897-5.495
		c-16.438,26.634-35.566,50.953-57.337,73.004c-4.77,4.512-9.704,7.81-14.801,9.89l5.145,11.013
		c3.928-0.911,9.19-1.659,15.784-2.245C534.691,144.197,559.548,142.608,599.207,140.316z"/>
	<path id="XMLID_69_" fill="#F04848" d="M745.049,140.691h-11.902V63.174h-30.328V51.786h39.448v-8.512h-39.448V29.993h-9.494
		v13.281h-36.337v8.512h36.337v11.388h-29.556v77.516h-12.651v8.535h93.932V140.691z M723.864,140.691h-50.836v-11.388h50.836
		V140.691z M723.864,121.305h-50.836v-11.271h50.836V121.305z M723.864,102.014h-50.836V90.719h50.836V102.014z M723.864,82.723
		h-50.836V71.452h50.836V82.723z"/>
	<path id="XMLID_73_" fill="#F04848" d="M635.335,82.956v69.776h9.142V63.688c3.929-9.446,7.553-19.548,10.897-30.304l-9.259-2.76
		c-6.174,23.781-14.872,44.031-26.049,60.75c1.426,3.321,2.712,6.758,3.857,10.265C627.945,95.864,631.756,89.644,635.335,82.956z"
		/>
	<path id="XMLID_76_" fill="#F04848" d="M806.643,81.085h45.971v4.256h9.003v-49.83h-63.978v49.83h9.003V81.085z M806.643,43.391
		h45.971v11.013h-45.971V43.391z M806.643,62.051h45.971v11.153h-45.971V62.051z"/>
	<path id="XMLID_78_" fill="#F04848" d="M787.725,34.623l-8.886-5.121c-8.091,14.1-18.029,25.839-29.814,35.192
		c1.941,2.993,3.647,5.963,5.167,8.886C766.282,62.964,777.46,50.008,787.725,34.623z"/>
	<path id="XMLID_79_" fill="#F04848" d="M776.337,153.107V84.85c3.765-5.518,7.507-11.435,11.271-17.795l-8.769-4.514
		c-9.681,17.468-19.783,31.147-30.306,41.086c1.685,3.437,3.134,6.757,4.396,10.008c4.7-4.747,9.377-10.032,14.03-15.901v55.372
		H776.337z"/>
	<path id="XMLID_80_" fill="#F04848" d="M855.116,136.317v-18.145h18.285v-8.278h-18.285V99.629h15.27v-8.255h-79.645v8.255h54.859
		v10.265H785.48v8.278h60.119v15.76c0,5.262-2.596,7.88-7.787,7.88c-6.665,0-12.767-0.28-18.263-0.866
		c0.818,4.023,1.45,7.389,1.87,10.149c7.927,0.093,14.171,0.117,18.66,0.117C850.089,151.213,855.116,146.256,855.116,136.317z"/>
	<path id="XMLID_81_" fill="#F04848" d="M818.287,133.932c-4.256-5.167-8.792-10.289-13.656-15.386l-7.132,5.378
		c4.676,5.261,9.002,10.476,13.025,15.643L818.287,133.932z"/>
	<path id="XMLID_82_" fill="#F04848" d="M972.338,69.698c2.338,0.748,5.495,2.081,9.517,3.999
		c4.583-7.577,9.097-16.813,13.516-27.663v-8.02H883.808v9.026h100.175C980.475,55.388,976.57,62.94,972.338,69.698z"/>
	<path id="XMLID_83_" fill="#F04848" d="M935.135,70.329c-8.933-6.266-18.449-12.323-28.552-18.169l-5.145,6.758
		c9.938,6.266,19.222,12.697,27.803,19.291L935.135,70.329z"/>
	<path id="XMLID_84_" fill="#F04848" d="M888.929,79.098c9.681,6.08,19.362,12.767,29.043,20.017l5.893-7.74
		c-8.863-6.36-18.754-12.697-29.697-19.058L888.929,79.098z"/>
	<path id="XMLID_85_" fill="#F04848" d="M1000,112.654v-9.026h-47.211c2.174-7.273,3.437-24.366,3.764-51.351h-10.032
		c-0.069,27.897-1.449,45.014-4.115,51.351h-63.743v9.026h59.604c-9.354,15.62-28.388,26.283-57.102,32.058
		c2.993,3.928,5.214,7.108,6.617,9.517c25.324-6.36,43.517-16.322,54.624-29.931c14.685,7.507,31.427,17.374,50.228,29.557
		l5.613-8.886c-20.203-12.112-37.134-21.42-50.86-27.944c0.842-1.426,1.614-2.876,2.269-4.372H1000z"/>
	<path id="XMLID_86_" fill="#F04848" d="M412.372,233.499c-2.922-1.333-8.3-2.9-16.134-4.676
		c-7.834-1.754-12.698-3.508-14.545-5.191c-1.894-1.683-2.829-3.835-2.829-6.454c0-3.016,1.31-5.589,3.999-7.74
		c2.665-2.128,6.921-3.203,12.743-3.203c5.613,0,9.845,1.169,12.698,3.531c2.876,2.362,4.559,5.846,5.05,10.452l9.261-0.702
		c-0.164-4.279-1.357-8.114-3.577-11.48c-2.222-3.391-5.402-5.94-9.518-7.693c-4.139-1.73-8.909-2.62-14.311-2.62
		c-4.887,0-9.353,0.842-13.376,2.502c-3.999,1.637-7.039,4.069-9.142,7.272c-2.105,3.204-3.134,6.641-3.134,10.313
		c0,3.367,0.843,6.384,2.573,9.095c1.683,2.689,4.303,4.958,7.763,6.781c2.689,1.427,7.389,2.924,14.101,4.536
		c6.664,1.614,10.989,2.806,12.954,3.579c3.062,1.146,5.238,2.572,6.57,4.279s1.987,3.717,1.987,6.009
		c0,2.245-0.678,4.327-2.057,6.244c-1.38,1.894-3.461,3.391-6.29,4.49c-2.83,1.076-6.08,1.638-9.751,1.638
		c-4.139,0-7.88-0.726-11.2-2.151c-3.297-1.45-5.753-3.344-7.32-5.682c-1.566-2.339-2.572-5.332-2.993-8.979l-9.095,0.795
		c0.116,4.887,1.45,9.259,3.975,13.118c2.549,3.857,6.033,6.757,10.5,8.675c4.443,1.917,9.984,2.876,16.578,2.876
		c5.215,0,9.892-0.959,14.054-2.853c4.162-1.917,7.341-4.559,9.564-7.996c2.221-3.461,3.32-7.085,3.32-10.968
		c0-3.928-0.982-7.365-3.016-10.381C419.737,237.92,416.604,235.44,412.372,233.499z"/>
	<path id="XMLID_87_" fill="#F04848" d="M476.817,249.681c-1.754,5.145-3.062,9.049-3.881,11.691
		c-0.724-2.385-1.894-5.962-3.484-10.78l-17.257-51.607h-14.521v72.887h9.306v-62.06l21.069,62.06h8.722l21.186-61.008v61.008h9.306
		v-72.887h-13.001L476.817,249.681z"/>
	<path id="XMLID_88_" fill="#F04848" d="M532.517,258.146l40.92-50.579v-8.582h-52.215v8.582h40.664
		c-2.385,2.456-4.887,5.355-7.553,8.652l-37.32,46.696v8.957h57.617v-8.606h-46.556L532.517,258.146z"/>
	<path id="XMLID_91_" fill="#F04848" d="M633.791,205.229c-2.946-2.502-6.525-4.256-10.687-5.215
		c-2.993-0.702-7.32-1.028-12.978-1.028h-25.114v72.887h26.307c4.396,0,8.302-0.421,11.715-1.239
		c3.391-0.842,6.29-2.058,8.699-3.648c2.409-1.637,4.63-3.812,6.641-6.617c2.01-2.806,3.671-6.337,4.981-10.64
		c1.286-4.256,1.941-9.166,1.941-14.708c0-6.501-0.959-12.276-2.876-17.328C640.526,212.641,637.649,208.48,633.791,205.229z
		 M633.441,248.933c-1.287,3.857-3.064,6.921-5.379,9.213c-1.613,1.637-3.788,2.876-6.524,3.788
		c-2.736,0.888-6.501,1.333-11.318,1.333h-15.55v-55.699h15.316c5.729,0,9.89,0.515,12.463,1.497
		c3.577,1.379,6.617,4.139,9.143,8.231c2.501,4.092,3.741,9.961,3.741,17.584C635.335,240.374,634.68,245.052,633.441,248.933z"/>
	<path id="XMLID_92_" fill="#F04848" d="M697.395,249.681c-1.754,5.145-3.041,9.049-3.883,11.691
		c-0.724-2.385-1.894-5.962-3.484-10.78l-17.257-51.607H658.25v72.887h9.307v-62.06l21.092,62.06h8.698l21.186-61.008v61.008h9.306
		v-72.887h-12.978L697.395,249.681z"/>
	<rect id="XMLID_93_" x="744.769" y="261.676" fill="#F04848" width="10.195" height="10.196"/>
	<path id="XMLID_94_" fill="#F04848" d="M816.089,260.18c-3.741,3.133-8.324,4.678-13.726,4.678c-4.443,0-8.558-1.146-12.393-3.438
		c-3.788-2.268-6.618-5.752-8.418-10.358c-1.801-4.63-2.713-10.032-2.713-16.229c0-4.816,0.771-9.47,2.292-14.006
		c1.519-4.512,4.163-8.138,7.927-10.803c3.765-2.689,8.442-4.023,14.053-4.023c4.864,0,8.91,1.192,12.136,3.625
		c3.204,2.408,5.659,6.266,7.365,11.575l9.494-2.222c-1.965-6.734-5.425-11.972-10.405-15.667
		c-4.981-3.717-11.084-5.589-18.403-5.589c-6.432,0-12.323,1.474-17.656,4.42c-5.354,2.922-9.493,7.225-12.393,12.861
		c-2.9,5.658-4.35,12.276-4.35,19.875c0,6.969,1.286,13.469,3.859,19.55c2.572,6.056,6.313,10.685,11.224,13.889
		c4.934,3.18,11.318,4.794,19.174,4.794c7.6,0,14.008-2.058,19.268-6.244c5.262-4.162,8.886-10.195,10.92-18.121l-9.657-2.433
		C822.356,252.44,819.83,257.071,816.089,260.18z"/>
	<path id="XMLID_97_" fill="#F04848" d="M895.406,202.493c-5.402-3.204-11.482-4.818-18.216-4.818
		c-10.265,0-18.66,3.437-25.16,10.265c-6.477,6.852-9.752,16.322-9.752,28.434c0,6.385,1.403,12.464,4.186,18.193
		c2.782,5.729,6.875,10.265,12.3,13.562c5.378,3.32,11.528,4.981,18.379,4.981c6.337,0,12.23-1.497,17.701-4.49
		c5.473-3.016,9.705-7.412,12.698-13.258c2.969-5.846,4.466-12.44,4.466-19.83c0-7.295-1.403-13.82-4.255-19.571
		C904.923,210.21,900.808,205.72,895.406,202.493z M895.032,257.187c-4.7,5.122-10.687,7.671-17.936,7.671
		c-7.132,0-13.047-2.526-17.772-7.577c-4.723-5.074-7.085-11.972-7.085-20.764c0-10.967,2.456-18.8,7.367-23.501
		c4.934-4.676,10.803-7.016,17.63-7.016c4.818,0,9.167,1.216,13.025,3.648c3.859,2.433,6.781,5.87,8.792,10.289
		s3.017,9.61,3.017,15.55C902.071,244.864,899.709,252.089,895.032,257.187z"/>
	<path id="XMLID_98_" fill="#F04848" d="M963.265,249.681c-1.754,5.145-3.04,9.049-3.881,11.691
		c-0.726-2.385-1.894-5.962-3.484-10.78l-17.258-51.607h-14.497v72.887h9.283v-62.06l21.069,62.06h8.722l21.185-61.008v61.008h9.307
		v-72.887h-12.978L963.265,249.681z"/>
</g>
</svg>
